ffmpeg started on 2025-06-04 at 19:30:22
Report written to "D:\Convert\FFMetrics\reports\psnr_report-6.txt"
Log level: 32
Command line:
ffmpeg -hide_banner -nostdin -i "G:\\\xc0\xed\xe8\xec\xe5\\\xce\xed\xe3\xee\xe8\xed\xe3\xe8\\!_36_\xce\xf1\xe5\xed\xfc_2024\\DreamCast\\\xc2\xfb \xef\xf0\xe0\xe2\xe4\xe0 \xe6\xe5\xed\xe8\xf2\xe5\xf1\xfc\\[DC] Kekkon Surutte Hontou Desuka - 06_Telegram_HEVC.mkv" -i "G:\\\xc0\xed\xe8\xec\xe5\\\xce\xed\xe3\xee\xe8\xed\xe3\xe8\\!_36_\xce\xf1\xe5\xed\xfc_2024\\DreamCast\\\xc2\xfb \xef\xf0\xe0\xe2\xe4\xe0 \xe6\xe5\xed\xe8\xf2\xe5\xf1\xfc\\[DC] Kekkon Surutte Hontou Desuka - 06_Telegram.mp4" -lavfi "[0:v]settb=AVTB,setpts=PTS-STARTPTS,format=pix_fmts=yuv420p10,fps=24000/1001,scale=1920:1080:flags=bicubic[main];[1:v]settb=AVTB,setpts=PTS-STARTPTS,format=pix_fmts=yuv420p,fps=24000/1001,scale=1920:1080:flags=bicubic[ref];[main][ref]psnr=eof_action=endall:stats_file='D\\:/Convert/FFMetrics/logs/psnr_logfile-6.txt'" -f null -
Input #0, matroska,webm, from 'G:\Аниме\Онгоинги\!_36_Осень_2024\DreamCast\Вы правда женитесь\[DC] Kekkon Surutte Hontou Desuka - 06_Telegram_HEVC.mkv':
  Metadata:
    COMPATIBLE_BRANDS: isomiso2avc1mp41
    MAJOR_BRAND     : isom
    MINOR_VERSION   : 512
    ENCODER         : Lavf61.7.100
  Duration: 00:23:46.73, start: -0.021000, bitrate: 1249 kb/s
  Stream #0:0: Video: hevc (Main 10), yuv420p10le(tv, bt709, progressive), 1920x1080 [SAR 1:1 DAR 16:9], 23.98 fps, 23.98 tbr, 1k tbn (default)
      Metadata:
        HANDLER_NAME    : VideoHandler
        VENDOR_ID       : [0][0][0][0]
        ENCODER         : Lavc61.19.100 libx265
        BPS             : 1051947
        DURATION        : 00:23:46.549708333
        NUMBER_OF_FRAMES: 34203
        NUMBER_OF_BYTES : 187581819
        _STATISTICS_WRITING_APP: mkvpropedit v66.0.0 ('Josie') 64-bit
        _STATISTICS_WRITING_DATE_UTC: 2025-05-30 08:09:54
        _STATISTICS_TAGS: BPS DURATION NUMBER_OF_FRAMES NUMBER_OF_BYTES
  Stream #0:1: Audio: aac (LC), 48000 Hz, stereo, fltp (default)
      Metadata:
        HANDLER_NAME    : SoundHandler
        VENDOR_ID       : [0][0][0][0]
        ENCODER         : Lavc61.19.100 aac
        BPS             : 193516
        DURATION        : 00:23:46.730000000
        NUMBER_OF_FRAMES: 66879
        NUMBER_OF_BYTES : 34511952
        _STATISTICS_WRITING_APP: mkvpropedit v66.0.0 ('Josie') 64-bit
        _STATISTICS_WRITING_DATE_UTC: 2025-05-30 08:09:54
        _STATISTICS_TAGS: BPS DURATION NUMBER_OF_FRAMES NUMBER_OF_BYTES
Input #1, mov,mp4,m4a,3gp,3g2,mj2, from 'G:\Аниме\Онгоинги\!_36_Осень_2024\DreamCast\Вы правда женитесь\[DC] Kekkon Surutte Hontou Desuka - 06_Telegram.mp4':
  Metadata:
    major_brand     : isom
    minor_version   : 512
    compatible_brands: isomiso2avc1mp41
    encoder         : Lavf61.1.100
  Duration: 00:23:46.68, start: 0.000000, bitrate: 3802 kb/s
  Stream #1:0[0x1](und): Video: h264 (High) (avc1 / 0x31637661), yuv420p(tv, bt709, progressive), 1920x1080 [SAR 1:1 DAR 16:9], 3655 kb/s, 23.98 fps, 23.98 tbr, 24k tbn (default)
      Metadata:
        handler_name    : VideoHandler
        vendor_id       : [0][0][0][0]
        encoder         : Lavc61.3.100 h264_qsv
  Stream #1:1[0x2](und): Audio: aac (HE-AACv2) (mp4a / 0x6134706D), 48000 Hz, stereo, fltp, 144 kb/s (default)
      Metadata:
        handler_name    : SoundHandler
        vendor_id       : [0][0][0][0]
Stream mapping:
  Stream #0:0 (hevc) -> settb:default
  Stream #1:0 (h264) -> settb:default
  psnr:default -> Stream #0:0 (wrapped_avframe)
  Stream #0:1 -> #0:1 (aac (native) -> pcm_s16le (native))
Output #0, null, to 'pipe:':
  Metadata:
    COMPATIBLE_BRANDS: isomiso2avc1mp41
    MAJOR_BRAND     : isom
    MINOR_VERSION   : 512
    encoder         : Lavf61.7.100
  Stream #0:0: Video: wrapped_avframe, yuv420p10le(tv, bt709, progressive), 1920x1080 [SAR 1:1 DAR 16:9], q=2-31, 200 kb/s, 23.98 fps, 23.98 tbn
      Metadata:
        encoder         : Lavc61.19.100 wrapped_avframe
  Stream #0:1: Audio: pcm_s16le, 48000 Hz, stereo, s16, 1536 kb/s (default)
      Metadata:
        HANDLER_NAME    : SoundHandler
        VENDOR_ID       : [0][0][0][0]
        _STATISTICS_TAGS: BPS DURATION NUMBER_OF_FRAMES NUMBER_OF_BYTES
        BPS             : 193516
        DURATION        : 00:23:46.730000000
        NUMBER_OF_FRAMES: 66879
        NUMBER_OF_BYTES : 34511952
        _STATISTICS_WRITING_APP: mkvpropedit v66.0.0 ('Josie') 64-bit
        _STATISTICS_WRITING_DATE_UTC: 2025-05-30 08:09:54
        encoder         : Lavc61.19.100 pcm_s16le
frame=  165 fps=0.0 q=-0.0 size=N/A time=00:00:06.88 bitrate=N/A speed=13.6x    frame=  432 fps=418 q=-0.0 size=N/A time=00:00:18.01 bitrate=N/A speed=17.4x    frame=  692 fps=450 q=-0.0 size=N/A time=00:00:28.86 bitrate=N/A speed=18.8x    frame=  955 fps=463 q=-0.0 size=N/A time=00:00:39.83 bitrate=N/A speed=19.3x    frame= 1184 fps=460 q=-0.0 size=N/A time=00:00:49.38 bitrate=N/A speed=19.2x    frame= 1441 fps=465 q=-0.0 size=N/A time=00:01:00.10 bitrate=N/A speed=19.4x    frame= 1659 fps=460 q=-0.0 size=N/A time=00:01:09.19 bitrate=N/A speed=19.2x    frame= 1914 fps=464 q=-0.0 size=N/A time=00:01:19.82 bitrate=N/A speed=19.3x    frame= 2159 fps=465 q=-0.0 size=N/A time=00:01:30.04 bitrate=N/A speed=19.4x    frame= 2386 fps=462 q=-0.0 size=N/A time=00:01:39.51 bitrate=N/A speed=19.3x    frame= 2613 fps=459 q=-0.0 size=N/A time=00:01:48.98 bitrate=N/A speed=19.1x    frame= 2853 fps=460 q=-0.0 size=N/A time=00:01:58.99 bitrate=N/A speed=19.2x    frame= 3076 fps=458 q=-0.0 size=N/A time=00:02:08.29 bitrate=N/A speed=19.1x    frame= 3313 fps=458 q=-0.0 size=N/A time=00:02:18.17 bitrate=N/A speed=19.1x    frame= 3521 fps=455 q=-0.0 size=N/A time=00:02:26.85 bitrate=N/A speed=  19x    frame= 3739 fps=452 q=-0.0 size=N/A time=00:02:35.94 bitrate=N/A speed=18.9x    frame= 3908 fps=445 q=-0.0 size=N/A time=00:02:42.99 bitrate=N/A speed=18.6x    frame= 4116 fps=443 q=-0.0 size=N/A time=00:02:51.67 bitrate=N/A speed=18.5x    frame= 4336 fps=442 q=-0.0 size=N/A time=00:03:00.84 bitrate=N/A speed=18.4x    frame= 4542 fps=440 q=-0.0 size=N/A time=00:03:09.43 bitrate=N/A speed=18.3x    frame= 4779 fps=441 q=-0.0 size=N/A time=00:03:19.32 bitrate=N/A speed=18.4x    frame= 5002 fps=440 q=-0.0 size=N/A time=00:03:28.62 bitrate=N/A speed=18.4x    frame= 5210 fps=439 q=-0.0 size=N/A time=00:03:37.30 bitrate=N/A speed=18.3x    frame= 5384 fps=435 q=-0.0 size=N/A time=00:03:44.55 bitrate=N/A speed=18.1x    frame= 5599 fps=434 q=-0.0 size=N/A time=00:03:53.52 bitrate=N/A speed=18.1x    frame= 5854 fps=436 q=-0.0 size=N/A time=00:04:04.16 bitrate=N/A speed=18.2x    frame= 6112 fps=439 q=-0.0 size=N/A time=00:04:14.92 bitrate=N/A speed=18.3x    frame= 6386 fps=442 q=-0.0 size=N/A time=00:04:26.39 bitrate=N/A speed=18.4x    frame= 6645 fps=444 q=-0.0 size=N/A time=00:04:37.15 bitrate=N/A speed=18.5x    frame= 6846 fps=442 q=-0.0 size=N/A time=00:04:45.53 bitrate=N/A speed=18.5x    frame= 7103 fps=444 q=-0.0 size=N/A time=00:04:56.25 bitrate=N/A speed=18.5x    frame= 7360 fps=446 q=-0.0 size=N/A time=00:05:06.97 bitrate=N/A speed=18.6x    frame= 7612 fps=447 q=-0.0 size=N/A time=00:05:17.48 bitrate=N/A speed=18.7x    frame= 7847 fps=447 q=-0.0 size=N/A time=00:05:27.28 bitrate=N/A speed=18.7x    frame= 8093 fps=448 q=-0.0 size=N/A time=00:05:37.54 bitrate=N/A speed=18.7x    frame= 8314 fps=447 q=-0.0 size=N/A time=00:05:46.76 bitrate=N/A speed=18.7x    frame= 8454 fps=443 q=-0.0 size=N/A time=00:05:52.60 bitrate=N/A speed=18.5x    frame= 8660 fps=442 q=-0.0 size=N/A time=00:06:01.19 bitrate=N/A speed=18.4x    frame= 8908 fps=443 q=-0.0 size=N/A time=00:06:11.53 bitrate=N/A speed=18.5x    frame= 9150 fps=443 q=-0.0 size=N/A time=00:06:21.63 bitrate=N/A speed=18.5x    frame= 9404 fps=444 q=-0.0 size=N/A time=00:06:32.22 bitrate=N/A speed=18.5x    frame= 9639 fps=444 q=-0.0 size=N/A time=00:06:42.02 bitrate=N/A speed=18.5x    frame= 9864 fps=444 q=-0.0 size=N/A time=00:06:51.41 bitrate=N/A speed=18.5x    frame=10083 fps=444 q=-0.0 size=N/A time=00:07:00.54 bitrate=N/A speed=18.5x    frame=10313 fps=444 q=-0.0 size=N/A time=00:07:10.13 bitrate=N/A speed=18.5x    frame=10564 fps=445 q=-0.0 size=N/A time=00:07:20.60 bitrate=N/A speed=18.6x    frame=10804 fps=445 q=-0.0 size=N/A time=00:07:30.61 bitrate=N/A speed=18.6x    frame=11030 fps=445 q=-0.0 size=N/A time=00:07:40.04 bitrate=N/A speed=18.6x    frame=11239 fps=444 q=-0.0 size=N/A time=00:07:48.75 bitrate=N/A speed=18.5x    frame=11489 fps=445 q=-0.0 size=N/A time=00:07:59.18 bitrate=N/A speed=18.6x    frame=11740 fps=446 q=-0.0 size=N/A time=00:08:09.65 bitrate=N/A speed=18.6x    frame=11998 fps=447 q=-0.0 size=N/A time=00:08:20.41 bitrate=N/A speed=18.6x    frame=12259 fps=448 q=-0.0 size=N/A time=00:08:31.30 bitrate=N/A speed=18.7x    frame=12509 fps=449 q=-0.0 size=N/A time=00:08:41.72 bitrate=N/A speed=18.7x    frame=12730 fps=448 q=-0.0 size=N/A time=00:08:50.94 bitrate=N/A speed=18.7x    frame=12952 fps=448 q=-0.0 size=N/A time=00:09:00.20 bitrate=N/A speed=18.7x    frame=13191 fps=448 q=-0.0 size=N/A time=00:09:10.17 bitrate=N/A speed=18.7x    frame=13425 fps=448 q=-0.0 size=N/A time=00:09:19.93 bitrate=N/A speed=18.7x    frame=13665 fps=449 q=-0.0 size=N/A time=00:09:29.94 bitrate=N/A speed=18.7x    frame=13840 fps=447 q=-0.0 size=N/A time=00:09:37.24 bitrate=N/A speed=18.6x    frame=14004 fps=445 q=-0.0 size=N/A time=00:09:44.08 bitrate=N/A speed=18.5x    frame=14208 fps=444 q=-0.0 size=N/A time=00:09:52.59 bitrate=N/A speed=18.5x    frame=14416 fps=443 q=-0.0 size=N/A time=00:10:01.26 bitrate=N/A speed=18.5x    frame=14583 fps=441 q=-0.0 size=N/A time=00:10:08.23 bitrate=N/A speed=18.4x    frame=14841 fps=442 q=-0.0 size=N/A time=00:10:18.99 bitrate=N/A speed=18.4x    frame=15107 fps=443 q=-0.0 size=N/A time=00:10:30.08 bitrate=N/A speed=18.5x    frame=15346 fps=444 q=-0.0 size=N/A time=00:10:40.05 bitrate=N/A speed=18.5x    frame=15580 fps=444 q=-0.0 size=N/A time=00:10:49.81 bitrate=N/A speed=18.5x    frame=15842 fps=445 q=-0.0 size=N/A time=00:11:00.74 bitrate=N/A speed=18.6x    frame=16069 fps=445 q=-0.0 size=N/A time=00:11:10.21 bitrate=N/A speed=18.5x    frame=16316 fps=445 q=-0.0 size=N/A time=00:11:20.51 bitrate=N/A speed=18.6x    frame=16568 fps=446 q=-0.0 size=N/A time=00:11:31.02 bitrate=N/A speed=18.6x    frame=16837 fps=447 q=-0.0 size=N/A time=00:11:42.24 bitrate=N/A speed=18.6x    frame=17101 fps=448 q=-0.0 size=N/A time=00:11:53.25 bitrate=N/A speed=18.7x    frame=17333 fps=448 q=-0.0 size=N/A time=00:12:02.93 bitrate=N/A speed=18.7x    frame=17564 fps=448 q=-0.0 size=N/A time=00:12:12.56 bitrate=N/A speed=18.7x    frame=17813 fps=448 q=-0.0 size=N/A time=00:12:22.95 bitrate=N/A speed=18.7x    frame=18066 fps=449 q=-0.0 size=N/A time=00:12:33.50 bitrate=N/A speed=18.7x    frame=18274 fps=448 q=-0.0 size=N/A time=00:12:42.17 bitrate=N/A speed=18.7x    frame=18540 fps=449 q=-0.0 size=N/A time=00:12:53.27 bitrate=N/A speed=18.7x    frame=18788 fps=449 q=-0.0 size=N/A time=00:13:03.61 bitrate=N/A speed=18.7x    frame=19019 fps=449 q=-0.0 size=N/A time=00:13:13.25 bitrate=N/A speed=18.7x    frame=19278 fps=450 q=-0.0 size=N/A time=00:13:24.05 bitrate=N/A speed=18.8x    frame=19513 fps=450 q=-0.0 size=N/A time=00:13:33.85 bitrate=N/A speed=18.8x    frame=19729 fps=450 q=-0.0 size=N/A time=00:13:42.86 bitrate=N/A speed=18.8x    frame=19935 fps=449 q=-0.0 size=N/A time=00:13:51.45 bitrate=N/A speed=18.7x    frame=20166 fps=449 q=-0.0 size=N/A time=00:14:01.09 bitrate=N/A speed=18.7x    frame=20316 fps=447 q=-0.0 size=N/A time=00:14:07.34 bitrate=N/A speed=18.7x    frame=20541 fps=447 q=-0.0 size=N/A time=00:14:16.73 bitrate=N/A speed=18.6x    frame=20777 fps=447 q=-0.0 size=N/A time=00:14:26.57 bitrate=N/A speed=18.7x    frame=21037 fps=448 q=-0.0 size=N/A time=00:14:37.41 bitrate=N/A speed=18.7x    frame=21245 fps=447 q=-0.0 size=N/A time=00:14:46.09 bitrate=N/A speed=18.7x    frame=21461 fps=447 q=-0.0 size=N/A time=00:14:55.10 bitrate=N/A speed=18.6x    frame=21686 fps=447 q=-0.0 size=N/A time=00:15:04.48 bitrate=N/A speed=18.6x    frame=21913 fps=447 q=-0.0 size=N/A time=00:15:13.95 bitrate=N/A speed=18.6x    frame=22136 fps=447 q=-0.0 size=N/A time=00:15:23.25 bitrate=N/A speed=18.6x    frame=22381 fps=447 q=-0.0 size=N/A time=00:15:33.47 bitrate=N/A speed=18.6x    frame=22595 fps=447 q=-0.0 size=N/A time=00:15:42.39 bitrate=N/A speed=18.6x    frame=22824 fps=447 q=-0.0 size=N/A time=00:15:51.95 bitrate=N/A speed=18.6x    frame=23081 fps=447 q=-0.0 size=N/A time=00:16:02.67 bitrate=N/A speed=18.6x    frame=23328 fps=447 q=-0.0 size=N/A time=00:16:12.97 bitrate=N/A speed=18.7x    frame=23557 fps=447 q=-0.0 size=N/A time=00:16:22.52 bitrate=N/A speed=18.7x    frame=23831 fps=448 q=-0.0 size=N/A time=00:16:33.95 bitrate=N/A speed=18.7x    frame=24072 fps=448 q=-0.0 size=N/A time=00:16:44.00 bitrate=N/A speed=18.7x    frame=24240 fps=447 q=-0.0 size=N/A time=00:16:51.01 bitrate=N/A speed=18.7x    frame=24458 fps=447 q=-0.0 size=N/A time=00:17:00.10 bitrate=N/A speed=18.6x    frame=24667 fps=447 q=-0.0 size=N/A time=00:17:08.81 bitrate=N/A speed=18.6x    frame=24901 fps=447 q=-0.0 size=N/A time=00:17:18.57 bitrate=N/A speed=18.6x    frame=25168 fps=447 q=-0.0 size=N/A time=00:17:29.71 bitrate=N/A speed=18.7x    frame=25432 fps=448 q=-0.0 size=N/A time=00:17:40.72 bitrate=N/A speed=18.7x    frame=25678 fps=448 q=-0.0 size=N/A time=00:17:50.98 bitrate=N/A speed=18.7x    frame=25926 fps=448 q=-0.0 size=N/A time=00:18:01.33 bitrate=N/A speed=18.7x    frame=26155 fps=448 q=-0.0 size=N/A time=00:18:10.88 bitrate=N/A speed=18.7x    frame=26399 fps=449 q=-0.0 size=N/A time=00:18:21.05 bitrate=N/A speed=18.7x    frame=26628 fps=449 q=-0.0 size=N/A time=00:18:30.60 bitrate=N/A speed=18.7x    frame=26845 fps=448 q=-0.0 size=N/A time=00:18:39.66 bitrate=N/A speed=18.7x    frame=27085 fps=449 q=-0.0 size=N/A time=00:18:49.67 bitrate=N/A speed=18.7x    frame=27331 fps=449 q=-0.0 size=N/A time=00:18:59.93 bitrate=N/A speed=18.7x    frame=27547 fps=449 q=-0.0 size=N/A time=00:19:08.93 bitrate=N/A speed=18.7x    frame=27775 fps=448 q=-0.0 size=N/A time=00:19:18.44 bitrate=N/A speed=18.7x    frame=28052 fps=449 q=-0.0 size=N/A time=00:19:30.00 bitrate=N/A speed=18.7x    frame=28319 fps=450 q=-0.0 size=N/A time=00:19:41.13 bitrate=N/A speed=18.8x    frame=28521 fps=449 q=-0.0 size=N/A time=00:19:49.56 bitrate=N/A speed=18.7x    frame=28792 fps=450 q=-0.0 size=N/A time=00:20:00.86 bitrate=N/A speed=18.8x    frame=29052 fps=450 q=-0.0 size=N/A time=00:20:11.71 bitrate=N/A speed=18.8x    frame=29293 fps=450 q=-0.0 size=N/A time=00:20:21.76 bitrate=N/A speed=18.8x    frame=29535 fps=451 q=-0.0 size=N/A time=00:20:31.85 bitrate=N/A speed=18.8x    frame=29753 fps=450 q=-0.0 size=N/A time=00:20:40.94 bitrate=N/A speed=18.8x    frame=29987 fps=450 q=-0.0 size=N/A time=00:20:50.70 bitrate=N/A speed=18.8x    frame=30253 fps=451 q=-0.0 size=N/A time=00:21:01.80 bitrate=N/A speed=18.8x    frame=30503 fps=451 q=-0.0 size=N/A time=00:21:12.22 bitrate=N/A speed=18.8x    frame=30745 fps=451 q=-0.0 size=N/A time=00:21:22.32 bitrate=N/A speed=18.8x    frame=30976 fps=451 q=-0.0 size=N/A time=00:21:31.95 bitrate=N/A speed=18.8x    frame=31195 fps=451 q=-0.0 size=N/A time=00:21:41.09 bitrate=N/A speed=18.8x    frame=31444 fps=451 q=-0.0 size=N/A time=00:21:51.47 bitrate=N/A speed=18.8x    frame=31685 fps=451 q=-0.0 size=N/A time=00:22:01.52 bitrate=N/A speed=18.8x    frame=31933 fps=452 q=-0.0 size=N/A time=00:22:11.87 bitrate=N/A speed=18.8x    frame=32115 fps=451 q=-0.0 size=N/A time=00:22:19.46 bitrate=N/A speed=18.8x    frame=32242 fps=449 q=-0.0 size=N/A time=00:22:24.76 bitrate=N/A speed=18.7x    frame=32421 fps=449 q=-0.0 size=N/A time=00:22:32.22 bitrate=N/A speed=18.7x    frame=32605 fps=448 q=-0.0 size=N/A time=00:22:39.90 bitrate=N/A speed=18.7x    frame=32753 fps=447 q=-0.0 size=N/A time=00:22:46.07 bitrate=N/A speed=18.6x    frame=32919 fps=446 q=-0.0 size=N/A time=00:22:52.99 bitrate=N/A speed=18.6x    frame=33078 fps=445 q=-0.0 size=N/A time=00:22:59.62 bitrate=N/A speed=18.6x    frame=33235 fps=444 q=-0.0 size=N/A time=00:23:06.17 bitrate=N/A speed=18.5x    frame=33410 fps=443 q=-0.0 size=N/A time=00:23:13.47 bitrate=N/A speed=18.5x    frame=33593 fps=443 q=-0.0 size=N/A time=00:23:21.10 bitrate=N/A speed=18.5x    frame=33754 fps=442 q=-0.0 size=N/A time=00:23:27.82 bitrate=N/A speed=18.4x    frame=33911 fps=441 q=-0.0 size=N/A time=00:23:34.37 bitrate=N/A speed=18.4x    frame=34085 fps=440 q=-0.0 size=N/A time=00:23:41.62 bitrate=N/A speed=18.4x    [Parsed_psnr_10 @ 000002637e1fc5c0] PSNR y:47.491702 u:50.812679 v:50.980981 average:48.359509 min:40.598382 max:inf
[out#0/null @ 000002637153f080] video:14697KiB audio:267516KiB subtitle:0KiB other streams:0KiB global headers:0KiB muxing overhead: unknown
frame=34203 fps=440 q=-0.0 Lsize=N/A time=00:23:46.55 bitrate=N/A speed=18.4x    
